<?xml version="1.0" standalone="no"?>
<!DOCTYPE svg PUBLIC "-//W3C//DTD SVG 20010904//EN"
 "http://www.w3.org/TR/2001/REC-SVG-20010904/DTD/svg10.dtd">
<svg version="1.0" xmlns="http://www.w3.org/2000/svg"
 width="1023.000000pt" height="420.000000pt" viewBox="0 0 1023.000000 420.000000"
 preserveAspectRatio="xMidYMid meet">

<g transform="translate(0.000000,420.000000) scale(0.100000,-0.100000)"
fill="#000000" stroke="none">
<path d="M2641 3970 c-140 -12 -213 -28 -356 -78 -136 -47 -241 -95 -350 -162
-105 -64 -360 -281 -329 -280 5 1 60 11 122 24 l113 23 23 -31 c13 -17 31 -46
42 -63 22 -39 25 -40 50 -12 23 26 127 95 220 145 38 21 71 42 72 46 2 4 11 8
20 8 9 0 34 6 57 14 104 36 200 57 310 70 125 13 546 96 555 108 8 10 44 4
150 -25 52 -14 116 -29 142 -32 45 -6 78 -25 44 -25 -24 0 -19 -15 14 -53 24
-28 30 -44 30 -80 0 -40 3 -47 29 -60 25 -13 31 -13 35 -1 8 22 32 16 44 -11
6 -14 16 -25 22 -25 6 0 30 -9 52 -20 45 -22 78 -26 78 -10 0 6 24 10 53 10
37 0 48 3 37 10 -12 8 -10 10 9 10 25 0 24 0 -10 36 -84 89 -302 246 -434 312
-56 28 -201 78 -298 103 -182 46 -378 64 -546 49z m-501 -375 c-19 -18 -80
-32 -80 -17 0 5 17 14 38 20 53 14 58 14 42 -3z m-120 -82 c0 -14 -34 -43 -52
-43 -22 0 -23 8 -1 32 15 17 53 25 53 11z m1770 -39 c0 -17 -22 -14 -28 4 -2
7 3 12 12 12 9 0 16 -7 16 -16z"/>
<path d="M2892 3691 c-122 -26 -226 -51 -230 -57 -5 -5 -50 -254 -101 -554
-51 -300 -96 -549 -101 -553 -10 -11 -1 -25 -330 488 -155 242 -285 443 -289
448 -4 4 -119 -15 -256 -43 -137 -27 -250 -50 -250 -50 -3 0 33 -162 37 -165
2 -2 32 3 68 10 36 8 76 14 90 15 l26 0 115 -567 c69 -338 112 -572 107 -578
-5 -5 -43 -17 -86 -26 -76 -15 -77 -16 -76 -45 1 -16 7 -54 13 -85 l12 -56
249 51 c136 28 251 54 255 58 6 5 -1 51 -20 144 -5 21 -6 21 -85 6 -44 -9 -82
-13 -85 -11 -4 5 -235 1121 -235 1140 0 5 4 9 8 9 5 0 186 -277 403 -615 256
-400 400 -615 410 -615 9 0 19 10 22 23 3 12 58 335 123 717 64 382 121 699
125 704 5 5 11 7 14 5 7 -8 238 -1139 233 -1144 -3 -3 -41 -13 -86 -22 -60
-13 -82 -21 -82 -33 1 -25 27 -141 34 -147 4 -5 264 44 273 51 1 1 -4 30 -12
64 -9 47 -10 65 -1 68 6 2 38 10 71 17 65 15 85 42 31 42 -19 1 -32 7 -37 20
-8 20 -122 569 -135 652 l-6 43 -46 -3 -46 -2 -12 50 c-19 80 -18 82 26 90 22
4 40 12 40 18 0 6 -12 71 -27 144 -15 72 -25 134 -22 137 3 4 43 14 89 23 l82
16 -6 45 c-12 91 -25 122 -49 121 -12 -1 -122 -22 -245 -48z"/>
<path d="M3198 3695 c5 -29 8 -31 15 -11 3 8 0 19 -7 25 -10 9 -12 6 -8 -14z"/>
<path d="M4442 3450 c0 -8 4 -26 8 -40 6 -20 8 -21 8 -5 0 11 -3 29 -8 40 -5
12 -8 14 -8 5z"/>
<path d="M3845 3389 c-99 -21 -181 -38 -181 -39 -1 0 3 -24 10 -52 13 -59 8
-57 115 -47 l45 4 67 -325 c38 -179 67 -332 66 -340 -1 -8 -142 146 -312 341
l-310 355 -170 -34 c-93 -19 -171 -35 -172 -35 -3 -4 22 -106 28 -111 3 -4 36
0 73 8 50 10 69 11 72 2 7 -18 154 -743 154 -759 0 -9 -22 -18 -71 -26 l-70
-13 6 -42 c9 -58 15 -76 25 -76 17 0 393 79 397 84 3 2 -1 29 -8 60 -11 49
-15 55 -33 51 -84 -19 -119 -25 -123 -21 -8 8 -153 720 -151 735 2 8 156 -161
342 -375 l339 -391 73 15 c41 8 74 18 74 22 0 3 -40 203 -90 444 -49 241 -90
443 -90 450 0 7 24 18 58 25 97 21 90 14 79 76 -13 67 0 67 -242 14z"/>
<path d="M4462 3360 c0 -14 2 -19 5 -12 2 6 2 18 0 25 -3 6 -5 1 -5 -13z"/>
<path d="M4385 3310 c-38 -10 -145 -35 -237 -56 -141 -31 -168 -41 -168 -56 0
-15 4 -16 26 -8 15 6 122 33 238 61 116 27 218 56 226 64 19 20 7 19 -85 -5z"/>
<path d="M3965 3270 c-3 -5 -2 -10 4 -10 5 0 13 5 16 10 3 6 2 10 -4 10 -5 0
-13 -4 -16 -10z"/>
<path d="M3795 3239 c-11 -4 -15 -8 -8 -8 6 -1 19 -8 27 -17 17 -16 19 -10 8
17 -5 12 -13 14 -27 8z"/>
<path d="M1460 3194 c-59 -14 -68 -22 -110 -104 -24 -49 -100 -240 -100 -255
0 -3 21 -5 46 -5 27 0 43 4 39 10 -4 6 7 10 24 10 17 0 31 5 31 10 0 6 18 10
40 10 22 0 40 5 40 10 0 6 22 10 48 10 74 0 78 16 44 184 -14 75 -31 136 -37
135 -5 -1 -35 -7 -65 -15z"/>
<path d="M3663 3142 c-104 -25 -140 -38 -133 -47 7 -8 37 -4 117 16 59 16 127
28 151 29 35 0 42 3 42 20 0 26 -5 25 -177 -18z"/>
<path d="M4532 3110 c0 -8 4 -26 8 -40 6 -20 8 -21 8 -5 0 11 -3 29 -8 40 -5
12 -8 14 -8 5z"/>
<path d="M3130 3102 c0 -4 9 -8 19 -8 11 0 17 4 15 8 -3 4 -12 8 -20 8 -8 0
-14 -4 -14 -8z"/>
<path d="M3320 3065 c0 -30 17 -52 30 -39 8 8 5 18 -9 35 -19 22 -20 23 -21 4z"/>
<path d="M4552 3020 c0 -14 2 -19 5 -12 2 6 2 18 0 25 -3 6 -5 1 -5 -13z"/>
<path d="M3148 3024 c-3 -3 -4 -13 -1 -23 3 -13 11 -17 24 -14 13 4 18 11 15
20 -3 8 -6 17 -6 19 0 6 -26 5 -32 -2z"/>
<path d="M4325 2936 c-121 -29 -232 -56 -247 -59 -16 -4 -28 -14 -28 -23 0
-11 5 -14 18 -9 9 3 120 31 246 61 237 56 246 59 246 75 0 11 25 16 -235 -45z"/>
<path d="M2820 2944 c-59 -15 -86 -26 -88 -38 -3 -14 1 -15 25 -5 15 6 58 16
94 22 52 10 65 15 60 27 -5 13 -17 12 -91 -6z"/>
<path d="M2382 2841 c-77 -19 -100 -29 -92 -37 9 -9 24 -8 58 3 26 7 69 17 97
21 36 5 51 12 53 25 4 20 13 21 -116 -12z"/>
<path d="M3837 2823 c-48 -13 -56 -18 -45 -28 20 -20 118 3 118 27 0 21 3 21
-73 1z"/>
<path d="M3495 2741 c-112 -28 -112 -28 -99 -41 6 -6 27 -4 57 5 26 8 74 17
107 21 60 7 71 13 48 31 -9 6 -48 1 -113 -16z"/>
<path d="M1938 2738 c-51 -13 -78 -25 -78 -34 0 -17 -1 -17 46 0 22 7 63 17
92 21 33 4 52 11 49 19 -6 17 -24 16 -109 -6z"/>
<path d="M4632 2740 c0 -8 4 -26 8 -40 6 -20 8 -21 8 -5 0 11 -3 29 -8 40 -5
12 -8 14 -8 5z"/>
<path d="M3229 2682 c-11 -2 -15 -10 -12 -23 6 -20 28 -26 38 -9 9 15 -8 36
-26 32z"/>
<path d="M1208 2566 c-386 -92 -476 -116 -424 -116 15 0 204 43 531 120 127
30 257 58 298 65 34 5 48 18 30 28 -5 2 -200 -42 -435 -97z"/>
<path d="M4652 2650 c0 -14 2 -19 5 -12 2 6 2 18 0 25 -3 6 -5 1 -5 -13z"/>
<path d="M3935 2630 c3 -5 8 -10 11 -10 2 0 4 5 4 10 0 6 -5 10 -11 10 -5 0
-7 -4 -4 -10z"/>
<path d="M2895 2600 c-38 -10 -105 -26 -147 -35 -55 -12 -78 -21 -78 -32 0
-10 6 -13 17 -9 34 14 226 56 251 56 34 0 57 14 48 29 -9 13 -4 14 -91 -9z"/>
<path d="M4383 2556 c-147 -34 -261 -65 -259 -71 1 -5 14 -10 27 -9 51 2 494
115 508 129 21 21 25 22 -276 -49z"/>
<path d="M4350 2460 c0 -5 -12 -10 -26 -10 -42 0 -54 -20 -47 -82 7 -71 -19
-158 -47 -158 -11 0 -24 -9 -30 -20 -13 -24 -36 -26 -47 -5 -6 10 -14 -14 -26
-74 -77 -410 -331 -765 -684 -957 -98 -54 -243 -108 -363 -135 -128 -30 -347
-36 -485 -14 -425 66 -792 325 -982 692 -48 92 -48 93 -85 93 -21 0 -38 -4
-38 -10 0 -5 -18 -10 -40 -10 -22 0 -40 -4 -40 -10 0 -5 -18 -10 -39 -10 -67
0 -61 -34 32 -190 142 -237 325 -421 562 -565 204 -123 444 -200 712 -227 104
-10 140 -9 260 5 240 30 436 91 626 197 392 218 674 586 780 1020 34 139 61
356 52 426 -5 44 -10 54 -26 54 -10 0 -19 -4 -19 -10z"/>
<path d="M2086 2410 c-82 -19 -151 -41 -154 -48 -5 -16 -8 -16 104 13 53 14
121 28 151 31 53 7 74 19 57 33 -5 4 -76 -9 -158 -29z"/>
<path d="M3743 2407 c-79 -20 -123 -35 -123 -44 0 -16 -12 -17 102 12 53 13
117 25 142 26 43 3 45 4 29 21 -9 10 -19 17 -22 17 -3 -1 -61 -15 -128 -32z"/>
<path d="M1278 2221 c-223 -53 -410 -99 -414 -103 -13 -13 28 -9 116 13 80 19
164 39 532 123 86 20 168 36 182 36 16 0 26 6 26 15 0 8 -8 15 -17 14 -10 -1
-201 -45 -425 -98z"/>
<path d="M2728 2167 c-90 -21 -128 -35 -128 -45 0 -9 6 -12 18 -7 29 11 225
55 249 55 16 0 21 4 17 15 -8 19 -4 19 -156 -18z"/>
<path d="M3789 2156 c-37 -25 -79 -85 -79 -112 0 -8 -7 -14 -15 -14 -9 0 -12
6 -9 15 11 28 -5 63 -33 73 -29 9 -107 -10 -119 -29 -8 -14 -24 -10 -24 6 0
19 -6 19 -63 -1 l-47 -16 15 -29 16 -29 -37 0 c-26 0 -43 -8 -65 -30 l-30 -29
-29 32 c-25 29 -34 32 -83 32 -66 0 -103 -22 -130 -78 -18 -36 -19 -36 -46
-23 -45 24 -261 48 -261 29 0 -3 21 -90 46 -192 28 -113 53 -191 63 -199 18
-15 58 -8 82 14 8 8 25 14 37 14 27 0 46 32 29 49 -8 8 -6 16 11 33 l22 22 39
-22 c45 -26 64 -27 118 -8 33 12 43 12 66 -1 37 -19 47 -10 47 42 0 52 14 64
43 37 50 -45 99 -51 138 -16 9 8 30 19 45 23 18 5 31 16 34 32 6 21 7 20 14
-13 10 -56 32 -62 108 -34 60 23 63 25 66 60 2 20 5 36 8 36 3 0 22 -11 42
-25 49 -33 127 -35 161 -4 65 61 78 168 32 265 -49 104 -138 142 -212 90z
m-206 -156 c7 -1 -1 -8 -16 -16 -32 -17 -43 -13 -33 12 4 10 12 14 22 10 9 -3
21 -6 27 -6z m365 -97 c-3 -29 -32 -43 -50 -25 -15 15 9 52 33 52 16 0 20 -5
17 -27z m-728 13 c0 -2 3 -11 6 -19 3 -10 -5 -18 -25 -25 -27 -10 -31 -9 -31
7 0 20 19 41 37 41 7 0 13 -2 13 -4z m266 -70 c7 -30 -1 -46 -25 -46 -17 0
-41 18 -41 31 0 13 31 39 46 39 7 0 16 -11 20 -24z m-351 5 c6 -11 -33 -36
-42 -27 -3 3 -3 12 0 21 7 17 33 20 42 6z m-165 -101 c0 -38 -64 -54 -73 -18
-8 30 -1 38 39 38 27 0 34 -4 34 -20z m260 -5 c0 -9 -9 -15 -21 -15 -18 0 -19
2 -9 15 7 8 16 15 21 15 5 0 9 -7 9 -15z"/>
<path d="M3124 2146 c-3 -8 0 -32 6 -55 20 -75 60 -45 60 45 0 20 -5 24 -30
24 -17 0 -33 -6 -36 -14z"/>
<path d="M2313 2070 c-96 -23 -143 -39 -143 -48 0 -8 7 -11 18 -8 104 30 148
41 215 50 67 10 76 13 65 26 -11 13 -30 11 -155 -20z"/>
<path d="M1599 1905 c-3 -2 -142 -36 -309 -75 -168 -39 -312 -74 -320 -77 -13
-5 -13 -7 1 -10 9 -2 115 19 235 47 203 47 326 75 382 86 12 2 22 11 22 19 0
15 -3 18 -11 10z"/>
<path d="M2353 1848 c3 -18 9 -49 13 -68 l7 -35 -26 32 c-71 83 -184 44 -201
-70 -6 -37 -11 -46 -31 -51 -14 -4 -25 -13 -25 -21 0 -23 -13 -18 -43 17 l-27
33 -25 -30 c-15 -18 -28 -26 -33 -20 -7 9 -83 106 -88 113 -5 7 -64 -33 -64
-43 0 -24 136 -335 147 -335 7 0 27 25 44 55 17 30 35 58 41 61 5 3 27 -6 48
-20 l39 -25 11 34 c6 19 14 35 16 35 3 0 22 -18 43 -40 33 -35 44 -40 81 -40
79 0 144 62 97 95 -18 13 -23 13 -37 0 -21 -19 -40 -19 -40 0 0 16 75 75 96
75 7 0 18 -17 24 -39 l10 -38 72 -1 c94 -1 103 2 128 42 27 45 28 142 0 195
-35 70 -84 94 -144 71 -24 -9 -26 -8 -26 20 0 30 -1 30 -56 30 l-57 0 6 -32z
m182 -213 c0 -38 -37 -48 -55 -15 -14 27 4 52 34 48 16 -2 21 -10 21 -33z
m-229 3 c9 -15 -27 -41 -39 -29 -13 13 -1 41 17 41 8 0 18 -5 22 -12z"/>
</g>
</svg>
